<svg version="1.1" xmlns="http://www.w3.org/2000/svg" viewBox="0 0 365.0908203125 145" width="730.181640625" height="290">
  <!-- svg-source:excalidraw -->
  
  <defs>
    <style class="style-fonts">
      @font-face {
        font-family: "Virgil";
        src: url("https://excalidraw.com/Virgil.woff2");
      }
      @font-face {
        font-family: "Cascadia";
        src: url("https://excalidraw.com/Cascadia.woff2");
      }
    </style>
  </defs>
  <rect x="0" y="0" width="365.0908203125" height="145" fill="#ffffff"></rect><g stroke-linecap="round" transform="translate(107.5 10) rotate(0 65.5 62.5)"><path d="M-0.21 0.79 C29.04 0.1, 54.85 -2.36, 130.17 0.78 M-0.64 0.47 C52.4 1.85, 102.05 0.15, 131.88 0.32 M129.76 -1.96 C132.63 42.59, 131.78 84.5, 132.24 124.31 M131.94 0.34 C131.72 34.28, 130.8 70.58, 130.61 124.75 M129.6 125.43 C89.2 124.99, 50.41 126.18, -1.42 126.25 M131.42 124.51 C98.23 125.38, 65.72 123.89, -0.69 124.99 M-0.68 124.11 C-1.01 76.82, 2.58 30.22, 0.29 -1.8 M-0.28 125.21 C-0.17 97.1, 0.15 68.87, 0.05 -0.87" stroke="#000000" stroke-width="1" fill="none"></path></g><g transform="translate(112.5 15) rotate(0 57.802734375 57.5)"><text x="0" y="0" font-family="Helvetica, Segoe UI Emoji" font-size="20px" fill="#000000" text-anchor="start" style="white-space: pre;" direction="ltr" dominant-baseline="text-before-edge">Equality</text><text x="0" y="23" font-family="Helvetica, Segoe UI Emoji" font-size="20px" fill="#000000" text-anchor="start" style="white-space: pre;" direction="ltr" dominant-baseline="text-before-edge">Comparison</text><text x="0" y="46" font-family="Helvetica, Segoe UI Emoji" font-size="20px" fill="#000000" text-anchor="start" style="white-space: pre;" direction="ltr" dominant-baseline="text-before-edge">Additon</text><text x="0" y="69" font-family="Helvetica, Segoe UI Emoji" font-size="20px" fill="#000000" text-anchor="start" style="white-space: pre;" direction="ltr" dominant-baseline="text-before-edge">Multiplication</text><text x="0" y="92" font-family="Helvetica, Segoe UI Emoji" font-size="20px" fill="#000000" text-anchor="start" style="white-space: pre;" direction="ltr" dominant-baseline="text-before-edge">Unary</text></g><g transform="translate(10 11.5) rotate(0 42.2216796875 57.5)"><text x="42.2216796875" y="0" font-family="Helvetica, Segoe UI Emoji" font-size="20px" fill="#000000" text-anchor="middle" style="white-space: pre;" direction="ltr" dominant-baseline="text-before-edge">Top</text><text x="42.2216796875" y="23" font-family="Helvetica, Segoe UI Emoji" font-size="20px" fill="#000000" text-anchor="middle" style="white-space: pre;" direction="ltr" dominant-baseline="text-before-edge"></text><text x="42.2216796875" y="46" font-family="Helvetica, Segoe UI Emoji" font-size="20px" fill="#000000" text-anchor="middle" style="white-space: pre;" direction="ltr" dominant-baseline="text-before-edge">Grammar</text><text x="42.2216796875" y="69" font-family="Helvetica, Segoe UI Emoji" font-size="20px" fill="#000000" text-anchor="middle" style="white-space: pre;" direction="ltr" dominant-baseline="text-before-edge"></text><text x="42.2216796875" y="92" font-family="Helvetica, Segoe UI Emoji" font-size="20px" fill="#000000" text-anchor="middle" style="white-space: pre;" direction="ltr" dominant-baseline="text-before-edge">Bottom</text></g><g transform="translate(248.3525390625 12) rotate(0 53.369140625 57.5)"><text x="53.369140625" y="0" font-family="Helvetica, Segoe UI Emoji" font-size="20px" fill="#000000" text-anchor="middle" style="white-space: pre;" direction="ltr" dominant-baseline="text-before-edge">Lower</text><text x="53.369140625" y="23" font-family="Helvetica, Segoe UI Emoji" font-size="20px" fill="#000000" text-anchor="middle" style="white-space: pre;" direction="ltr" dominant-baseline="text-before-edge"></text><text x="53.369140625" y="46" font-family="Helvetica, Segoe UI Emoji" font-size="20px" fill="#000000" text-anchor="middle" style="white-space: pre;" direction="ltr" dominant-baseline="text-before-edge">Precedence</text><text x="53.369140625" y="69" font-family="Helvetica, Segoe UI Emoji" font-size="20px" fill="#000000" text-anchor="middle" style="white-space: pre;" direction="ltr" dominant-baseline="text-before-edge"></text><text x="53.369140625" y="92" font-family="Helvetica, Segoe UI Emoji" font-size="20px" fill="#000000" text-anchor="middle" style="white-space: pre;" direction="ltr" dominant-baseline="text-before-edge">Higher</text></g><g stroke-linecap="round"><g transform="translate(301.5 59) rotate(0 0 -15.25)"><path d="M0 0 C0 -11.13, 0 -22.26, 0 -30.5 M0 0 C0 -10.37, 0 -20.74, 0 -30.5" stroke="#000000" stroke-width="1" fill="none"></path></g><g transform="translate(301.5 59) rotate(0 0 -15.25)"><path d="M0 -30.5 L6.34 -16.91 L-6.34 -16.91 L0 -30.5" stroke="none" stroke-width="0" fill="#000000" fill-rule="evenodd"></path><path d="M0 -30.5 C2.31 -25.54, 4.63 -20.58, 6.34 -16.91 M0 -30.5 C2.16 -25.88, 4.31 -21.26, 6.34 -16.91 M6.34 -16.91 C2.11 -16.91, -2.12 -16.91, -6.34 -16.91 M6.34 -16.91 C1.73 -16.91, -2.87 -16.91, -6.34 -16.91 M-6.34 -16.91 C-4.03 -21.85, -1.73 -26.79, 0 -30.5 M-6.34 -16.91 C-4.71 -20.39, -3.08 -23.88, 0 -30.5 M0 -30.5 C0 -30.5, 0 -30.5, 0 -30.5 M0 -30.5 C0 -30.5, 0 -30.5, 0 -30.5" stroke="#000000" stroke-width="1" fill="none"></path></g></g><mask></mask><g stroke-linecap="round"><g transform="translate(53.65425749984274 60.23966899772972) rotate(0 0 -15.25)"><path d="M0 0 C0 -6.52, 0 -13.04, 0 -30.5 M0 0 C0 -9.43, 0 -18.86, 0 -30.5" stroke="#000000" stroke-width="1" fill="none"></path></g><g transform="translate(53.65425749984274 60.23966899772972) rotate(0 0 -15.25)"><path d="M0 -30.5 L6.34 -16.91 L-6.34 -16.91 L0 -30.5" stroke="none" stroke-width="0" fill="#000000" fill-rule="evenodd"></path><path d="M0 -30.5 C1.35 -27.59, 2.71 -24.69, 6.34 -16.91 M0 -30.5 C1.96 -26.3, 3.92 -22.09, 6.34 -16.91 M6.34 -16.91 C2.52 -16.91, -1.31 -16.91, -6.34 -16.91 M6.34 -16.91 C2.36 -16.91, -1.63 -16.91, -6.34 -16.91 M-6.34 -16.91 C-3.99 -21.93, -1.65 -26.96, 0 -30.5 M-6.34 -16.91 C-4.29 -21.3, -2.24 -25.7, 0 -30.5 M0 -30.5 C0 -30.5, 0 -30.5, 0 -30.5 M0 -30.5 C0 -30.5, 0 -30.5, 0 -30.5" stroke="#000000" stroke-width="1" fill="none"></path></g></g><mask></mask><g stroke-linecap="round"><g transform="translate(53.725882363936535 107.6170812740832) rotate(180 0 -15.25)"><path d="M0 0 C0 -7.66, 0 -15.32, 0 -30.5 M0 0 C0 -9.94, 0 -19.89, 0 -30.5" stroke="#000000" stroke-width="1" fill="none"></path></g><g transform="translate(53.725882363936535 107.6170812740832) rotate(180 0 -15.25)"><path d="M0 -30.5 L6.34 -16.91 L-6.34 -16.91 L0 -30.5" stroke="none" stroke-width="0" fill="#000000" fill-rule="evenodd"></path><path d="M0 -30.5 C1.59 -27.09, 3.18 -23.67, 6.34 -16.91 M0 -30.5 C2.07 -26.07, 4.13 -21.64, 6.34 -16.91 M6.34 -16.91 C3.14 -16.91, -0.06 -16.91, -6.34 -16.91 M6.34 -16.91 C1.57 -16.91, -3.2 -16.91, -6.34 -16.91 M-6.34 -16.91 C-4.87 -20.06, -3.4 -23.21, 0 -30.5 M-6.34 -16.91 C-4.77 -20.27, -3.2 -23.64, 0 -30.5 M0 -30.5 C0 -30.5, 0 -30.5, 0 -30.5 M0 -30.5 C0 -30.5, 0 -30.5, 0 -30.5" stroke="#000000" stroke-width="1" fill="none"></path></g></g><mask></mask><g stroke-linecap="round"><g transform="translate(302.5909076925079 107.39669510476784) rotate(180 0 -15.25)"><path d="M0 0 C0 -10.05, 0 -20.1, 0 -30.5 M0 0 C0 -12.05, 0 -24.1, 0 -30.5" stroke="#000000" stroke-width="1" fill="none"></path></g><g transform="translate(302.5909076925079 107.39669510476784) rotate(180 0 -15.25)"><path d="M0 -30.5 L6.34 -16.91 L-6.34 -16.91 L0 -30.5" stroke="none" stroke-width="0" fill="#000000" fill-rule="evenodd"></path><path d="M0 -30.5 C2.09 -26.02, 4.18 -21.54, 6.34 -16.91 M0 -30.5 C2.5 -25.13, 5.01 -19.76, 6.34 -16.91 M6.34 -16.91 C1.29 -16.91, -3.75 -16.91, -6.34 -16.91 M6.34 -16.91 C1.43 -16.91, -3.49 -16.91, -6.34 -16.91 M-6.34 -16.91 C-4.92 -19.96, -3.49 -23.01, 0 -30.5 M-6.34 -16.91 C-4.98 -19.82, -3.62 -22.73, 0 -30.5 M0 -30.5 C0 -30.5, 0 -30.5, 0 -30.5 M0 -30.5 C0 -30.5, 0 -30.5, 0 -30.5" stroke="#000000" stroke-width="1" fill="none"></path></g></g><mask></mask><g stroke-linecap="round"><g transform="translate(107.57501361142704 37.60833715243018) rotate(0 64.82644941680064 0)"><path d="M0 0 C49.07 0, 98.14 0, 129.65 0 M0 0 C45.91 0, 91.83 0, 129.65 0" stroke="#000000" stroke-width="1" fill="none"></path></g></g><mask></mask><g stroke-linecap="round"><g transform="translate(108.52267157574761 63.0849219231078) rotate(0 64.82644941680064 0)"><path d="M0 0 C47.84 0, 95.67 0, 129.65 0 M0 0 C38.51 0, 77.03 0, 129.65 0" stroke="#000000" stroke-width="1" fill="none"></path></g></g><mask></mask><g stroke-linecap="round"><g transform="translate(108.88630747325033 84.18134119265022) rotate(0 64.82644941680064 0)"><path d="M0 0 C43.43 0, 86.85 0, 129.65 0 M0 0 C38.6 0, 77.21 0, 129.65 0" stroke="#000000" stroke-width="1" fill="none"></path></g></g><mask></mask><g stroke-linecap="round"><g transform="translate(107.4978771702988 107.02982666264671) rotate(0 64.82644941680064 0)"><path d="M0 0 C34 0, 68.01 0, 129.65 0 M0 0 C39.38 0, 78.75 0, 129.65 0" stroke="#000000" stroke-width="1" fill="none"></path></g></g><mask></mask></svg>